# xmcd
#
# Track frame offsets:
#	150
#	15750
#	31377
#	49447
#	67367
#	82580
#	97280
#	114077
#	127247
#	138967
#
# Disc length: 2128 seconds
#
# Revision: 0
# Processed by: cddbd v1.5.2PL0 Copyright (c) Steve Scherf et al.
# Submitted via: EasyCDDAExtractor 2010.6.0.0
#
DISCID=84084e0a
DTITLE=Sherrié Austin - Words
DYEAR=1997
DGENRE=Country
TTITLE0=Lucky in Love
TTITLE1=Innocent Man
TTITLE2=One Solitary Tear
TTITLE3=Trouble in Paradise
TTITLE4=That's No Way to Break a Heart
TTITLE5=I Want to Fall in Love (So Hard it Hurts)
TTITLE6=Words
TTITLE7=Tenderly
TTITLE8=Put Your Heart Into It
TTITLE9=You Keep on Lovin' Me
EXTD=
EXTT0=
EXTT1=
EXTT2=
EXTT3=
EXTT4=
EXTT5=
EXTT6=
EXTT7=
EXTT8=
EXTT9=
PLAYORDER=
